# Blender v3.6.0 OBJ File: 'mangrove_propagule.blend'
# www.blender.org
mtllib propagule_hanging_1.mtl
o mangrove_propagule_hanging_1_mangrove_propagule_hanging_1.001
v 0.063000 0.319000 0.063000
v -0.063000 0.319000 0.063000
v -0.063000 0.130000 0.063000
v 0.063000 0.130000 0.063000
v 0.063000 0.319000 -0.063000
v -0.063000 0.319000 -0.063000
v -0.063000 0.130000 -0.063000
v 0.063000 0.130000 -0.063000
v 0.063000 0.319000 -0.063000
v -0.063000 0.319000 -0.063000
v -0.063000 0.319000 -0.063000
v 0.063000 0.319000 -0.063000
v 0.063000 0.270782 -0.179409
v -0.063000 0.270782 -0.179409
v -0.063000 0.270782 -0.179409
v 0.063000 0.270782 -0.179409
v -0.063000 0.319000 0.063000
v -0.179409 0.270782 0.063000
v -0.179409 0.270782 0.063000
v -0.063000 0.319000 0.063000
v -0.063000 0.319000 -0.063000
v -0.179409 0.270782 -0.063000
v -0.179409 0.270782 -0.063000
v -0.063000 0.319000 -0.063000
v 0.063000 0.270782 0.179409
v -0.063000 0.270782 0.179409
v -0.063000 0.270782 0.179409
v 0.063000 0.270782 0.179409
v 0.063000 0.319000 0.063000
v -0.063000 0.319000 0.063000
v -0.063000 0.319000 0.063000
v 0.063000 0.319000 0.063000
v 0.179409 0.270782 0.063000
v 0.063000 0.319000 0.063000
v 0.063000 0.319000 0.063000
v 0.179409 0.270782 0.063000
v 0.179409 0.270782 -0.063000
v 0.063000 0.319000 -0.063000
v 0.063000 0.319000 -0.063000
v 0.179409 0.270782 -0.063000
v 0.063000 0.382000 0.063000
v -0.063000 0.382000 0.063000
v -0.063000 0.319000 0.063000
v 0.063000 0.319000 0.063000
v 0.063000 0.382000 -0.063000
v -0.063000 0.382000 -0.063000
v -0.063000 0.319000 -0.063000
v 0.063000 0.319000 -0.063000
v 0.044548 0.508000 0.044548
v -0.044548 0.508000 -0.044548
v -0.044548 0.382000 -0.044548
v 0.044548 0.382000 0.044548
v 0.044548 0.508000 0.044548
v -0.044548 0.508000 -0.044548
v -0.044548 0.382000 -0.044548
v 0.044548 0.382000 0.044548
v 0.044548 0.508000 -0.044548
v -0.044548 0.508000 0.044548
v -0.044548 0.382000 0.044548
v 0.044548 0.382000 -0.044548
v 0.044548 0.508000 -0.044548
v -0.044548 0.508000 0.044548
v -0.044548 0.382000 0.044548
v 0.044548 0.382000 -0.044548
vt 0.125000 0.562500
vt 0.000000 0.562500
vt 0.000000 0.375000
vt 0.125000 0.375000
vt 0.125000 0.562500
vt 0.000000 0.562500
vt 0.000000 0.375000
vt 0.125000 0.375000
vt 0.125000 0.687500
vt 0.000000 0.687500
vt 0.125000 0.687500
vt 0.000000 0.687500
vt 0.000000 0.562500
vt 0.125000 0.562500
vt 0.125000 0.562500
vt 0.000000 0.562500
vt 0.000000 0.375000
vt 0.125000 0.375000
vt 0.125000 0.562500
vt 0.000000 0.562500
vt 0.000000 0.375000
vt 0.125000 0.375000
vt 0.125000 1.000000
vt 0.000000 1.000000
vt 0.000000 1.000000
vt 0.125000 1.000000
vt 0.125000 1.000000
vt 0.000000 1.000000
vt 0.000000 1.000000
vt 0.125000 1.000000
vt 0.500000 0.687500
vt 0.625000 0.687500
vt 0.625000 0.812500
vt 0.500000 0.812500
vt 0.500000 0.812500
vt 0.375000 0.812500
vt 0.375000 0.687500
vt 0.500000 0.687500
vt 0.125000 1.000000
vt 0.000000 1.000000
vt 0.000000 1.000000
vt 0.125000 1.000000
vt 0.125000 1.000000
vt 0.000000 1.000000
vt 0.000000 1.000000
vt 0.125000 1.000000
vt 0.125000 1.000000
vt 0.000000 1.000000
vt 0.000000 1.000000
vt 0.125000 1.000000
vt 0.125000 1.000000
vt 0.000000 1.000000
vt 0.000000 1.000000
vt 0.125000 1.000000
vt 0.500000 0.812500
vt 0.500000 0.687500
vt 0.625000 0.687500
vt 0.625000 0.812500
vt 0.375000 0.812500
vt 0.375000 0.687500
vt 0.500000 0.687500
vt 0.500000 0.812500
vt 0.125000 1.000000
vt 0.000000 1.000000
vt 0.000000 1.000000
vt 0.125000 1.000000
vt 0.125000 1.000000
vt 0.000000 1.000000
vt 0.000000 1.000000
vt 0.125000 1.000000
vt 0.125000 1.000000
vt 0.000000 1.000000
vt 0.000000 1.000000
vt 0.125000 1.000000
vt 0.125000 1.000000
vt 0.000000 1.000000
vt 0.000000 1.000000
vt 0.125000 1.000000
vt 0.625000 0.812500
vt 0.500000 0.812500
vt 0.500000 0.687500
vt 0.625000 0.687500
vt 0.375000 0.687500
vt 0.500000 0.687500
vt 0.500000 0.812500
vt 0.375000 0.812500
vt 0.125000 1.000000
vt 0.000000 1.000000
vt 0.000000 1.000000
vt 0.125000 1.000000
vt 0.125000 1.000000
vt 0.000000 1.000000
vt 0.000000 1.000000
vt 0.125000 1.000000
vt 0.125000 1.000000
vt 0.000000 1.000000
vt 0.000000 1.000000
vt 0.125000 1.000000
vt 0.125000 1.000000
vt 0.000000 1.000000
vt 0.000000 1.000000
vt 0.125000 1.000000
vt 0.625000 0.687500
vt 0.625000 0.812500
vt 0.500000 0.812500
vt 0.500000 0.687500
vt 0.500000 0.687500
vt 0.500000 0.812500
vt 0.375000 0.812500
vt 0.375000 0.687500
vt 0.125000 1.000000
vt 0.000000 1.000000
vt 0.000000 1.000000
vt 0.125000 1.000000
vt 0.125000 1.000000
vt 0.000000 1.000000
vt 0.000000 1.000000
vt 0.125000 1.000000
vt 0.125000 0.875000
vt 0.000000 0.875000
vt 0.000000 0.812500
vt 0.125000 0.812500
vt 0.125000 0.875000
vt 0.000000 0.875000
vt 0.000000 0.812500
vt 0.125000 0.812500
vt 0.125000 1.000000
vt 0.000000 1.000000
vt 0.125000 0.812500
vt 0.000000 0.812500
vt 0.000000 0.687500
vt 0.125000 0.687500
vt 0.125000 0.875000
vt 0.000000 0.875000
vt 0.000000 0.812500
vt 0.125000 0.875000
vt 0.000000 0.875000
vt 0.125000 0.812500
vt 0.125000 1.000000
vt 0.000000 1.000000
vt 0.000000 0.875000
vt 0.125000 0.875000
vt 0.125000 1.000000
vt 0.000000 1.000000
vt 0.000000 0.875000
vt 0.125000 0.875000
vt 0.125000 1.000000
vt 0.000000 1.000000
vt 0.125000 1.000000
vt 0.000000 1.000000
vt 0.000000 1.000000
vt 0.125000 1.000000
vt 0.000000 0.875000
vt 0.000000 1.000000
vt 0.000000 0.875000
vt 0.125000 1.000000
vt 0.000000 1.000000
vt 0.000000 0.875000
vt 0.125000 0.875000
vt 0.125000 1.000000
vt 0.000000 1.000000
vt 0.000000 0.875000
vt 0.125000 0.875000
vt 0.125000 1.000000
vt 0.000000 1.000000
vt 0.125000 1.000000
vt 0.000000 1.000000
vt 0.000000 1.000000
vt 0.125000 1.000000
vt 0.000000 0.875000
vt 0.000000 1.000000
vt 0.000000 0.875000
vn 0.0000 0.0000 1.0000
vn 0.0000 0.0000 -1.0000
vn 0.0000 1.0000 0.0000
vn 1.0000 0.0000 0.0000
vn -1.0000 0.0000 0.0000
vn 0.0000 0.9239 -0.3827
vn -0.3827 0.9239 0.0000
vn 0.0000 0.9239 0.3827
vn 0.3827 0.9239 0.0000
vn -0.7071 0.0000 0.7071
vn 0.7071 0.0000 -0.7071
vn 0.7071 0.0000 0.7071
vn -0.7071 0.0000 -0.7071
usemtl mangrove_propagule_hanging.006
s off
f 1/1/1 2/2/1 3/3/1 4/4/1
f 6/5/2 5/6/2 8/7/2 7/8/2
f 2/9/3 1/10/3 5/6/3 6/5/3
f 8/11/3 7/12/3 3/13/3 4/14/3
f 5/15/4 1/16/4 4/17/4 8/18/4
f 2/19/5 6/20/5 7/21/5 3/22/5
f 9/23/1 10/24/1 11/25/1 12/26/1
f 14/27/1 13/28/1 16/29/1 15/30/1
f 10/31/6 9/32/6 13/33/6 14/34/6
f 16/35/6 15/36/6 11/37/6 12/38/6
f 13/39/1 9/40/1 12/41/1 16/42/1
f 10/43/1 14/44/1 15/45/1 11/46/1
f 17/47/1 18/48/1 19/49/1 20/50/1
f 22/51/1 21/52/1 24/53/1 23/54/1
f 18/55/7 17/56/7 21/57/7 22/58/7
f 24/59/7 23/60/7 19/61/7 20/62/7
f 21/63/1 17/64/1 20/65/1 24/66/1
f 18/67/1 22/68/1 23/69/1 19/70/1
f 25/71/1 26/72/1 27/73/1 28/74/1
f 30/75/1 29/76/1 32/77/1 31/78/1
f 26/79/8 25/80/8 29/81/8 30/82/8
f 32/83/8 31/84/8 27/85/8 28/86/8
f 29/87/1 25/88/1 28/89/1 32/90/1
f 26/91/1 30/92/1 31/93/1 27/94/1
f 33/95/1 34/96/1 35/97/1 36/98/1
f 38/99/1 37/100/1 40/101/1 39/102/1
f 34/103/9 33/104/9 37/105/9 38/106/9
f 40/107/9 39/108/9 35/109/9 36/110/9
f 37/111/1 33/112/1 36/113/1 40/114/1
f 34/115/1 38/116/1 39/117/1 35/118/1
f 41/119/1 42/120/1 43/121/1 44/122/1
f 46/123/2 45/124/2 48/125/2 47/126/2
f 42/127/3 41/128/3 45/124/3 46/123/3
f 48/129/3 47/130/3 43/131/3 44/132/3
f 45/133/4 41/134/4 44/135/4 48/129/4
f 42/136/5 46/137/5 47/130/5 43/138/5
f 49/139/10 50/140/10 51/141/10 52/142/10
f 54/143/11 53/144/11 56/145/11 55/146/11
f 50/147/1 49/148/1 53/144/1 54/143/1
f 56/149/1 55/150/1 51/151/1 52/152/1
f 53/144/1 49/148/1 52/153/1 56/145/1
f 50/140/1 54/154/1 55/155/1 51/141/1
f 57/156/12 58/157/12 59/158/12 60/159/12
f 62/160/13 61/161/13 64/162/13 63/163/13
f 58/164/1 57/165/1 61/161/1 62/160/1
f 64/166/1 63/167/1 59/168/1 60/169/1
f 61/161/1 57/165/1 60/170/1 64/162/1
f 58/157/1 62/171/1 63/172/1 59/158/1
